<?xml version="1.0" encoding="UTF-8" standalone="no"?>
<!-- Created with Inkscape (http://www.inkscape.org/) -->

<svg
   xmlns:dc="http://purl.org/dc/elements/1.1/"
   xmlns:cc="http://creativecommons.org/ns#"
   xmlns:rdf="http://www.w3.org/1999/02/22-rdf-syntax-ns#"
   xmlns:svg="http://www.w3.org/2000/svg"
   xmlns="http://www.w3.org/2000/svg"
   xmlns:sodipodi="http://sodipodi.sourceforge.net/DTD/sodipodi-0.dtd"
   xmlns:inkscape="http://www.inkscape.org/namespaces/inkscape"
   width="200mm"
   height="200mm"
   viewBox="0 0 200 200"
   version="1.1"
   id="svg1271"
   inkscape:version="0.91 r13725"
   sodipodi:docname="plane.svg">
  <defs
     id="defs1265" />
  <sodipodi:namedview
     id="base"
     pagecolor="#ffffff"
     bordercolor="#666666"
     borderopacity="1.0"
     inkscape:pageopacity="0.0"
     inkscape:pageshadow="2"
     inkscape:zoom="0.9666288"
     inkscape:cx="492.16043"
     inkscape:cy="215.9694"
     inkscape:document-units="mm"
     inkscape:current-layer="layer1"
     showgrid="false"
     inkscape:window-width="1366"
     inkscape:window-height="705"
     inkscape:window-x="-8"
     inkscape:window-y="-8"
     inkscape:window-maximized="1" />
  <metadata
     id="metadata1268">
    <rdf:RDF>
      <cc:Work
         rdf:about="">
        <dc:format>image/svg+xml</dc:format>
        <dc:type
           rdf:resource="http://purl.org/dc/dcmitype/StillImage" />
        <dc:title />
      </cc:Work>
    </rdf:RDF>
  </metadata>
  <g
     inkscape:label="Layer 1"
     inkscape:groupmode="layer"
     id="layer1"
     transform="translate(0,-97)">
    <g
       id="g3385"
       transform="matrix(0.04790699,0,0,0.04790699,164.40649,263.16383)">
      <g
         id="g3343">
        <g
           id="g3345">
          <path
             id="path3347"
             d="m 552.229,492.517 c -13.086,-9.073 -24.17,-20.265 -34.604,-32.207 -8.037,-9.196 -14.703,-19.335 -21.477,-29.441 -4.328,-6.459 -9.082,-12.647 -13.836,-18.805 -4.014,-5.198 -8.289,-10.196 -12.488,-15.251 -5.74,-6.92 -11.469,-13.852 -17.287,-20.706 -3.762,-4.431 -7.598,-8.812 -11.555,-13.072 -3.154,-3.398 -6.352,-6.813 -9.895,-9.779 -2.646,-2.216 -5.805,-3.864 -8.869,-5.521 -3.338,-1.804 -6.842,-3.293 -10.244,-4.978 -4.133,-2.044 -8.258,-4.104 -12.348,-6.238 -4.58,-2.392 -9.109,-4.88 -13.68,-7.3 -4.227,-2.239 -8.498,-4.39 -12.705,-6.671 -5.613,-3.043 -11.199,-6.148 -16.768,-9.273 -4.824,-2.705 -9.643,-5.427 -14.398,-8.245 -2.078,-1.232 -3.986,-2.746 -5.99,-4.109 -1.787,-1.216 -3.598,-2.398 -5.406,-3.606 1.301,-1.615 2.559,-2.909 3.492,-4.398 1.412,-2.256 1.91,-4.712 0.49,-7.205 -0.168,-0.294 -0.424,-0.657 -0.697,-0.865 -4.455,-7.368 -10.877,-12.697 -18.74,-16.312 -4.488,-2.064 -9.168,-3.701 -13.957,-4.904 -1.918,-1.126 -3.896,-2.281 -5.912,-3.37 -3.465,-1.876 -6.699,-3.941 -9.074,-7.234 -0.938,-1.301 -2.477,-2.167 -4.002,-3.452 0.012,0.033 -0.041,-0.583 -0.371,-0.816 -1.408,-1.003 -2.869,-1.938 -4.395,-2.934 -0.399,-0.812 -1.032,-1.285 -1.836,-1.697 -0.408,-0.208 -0.816,-0.42 -1.228,-0.628 -0.229,-0.212 -0.473,-0.424 -0.718,-0.649 -1.759,-1.587 -3.231,-3.505 -4.757,-5.336 -3.28,-3.933 -6.688,-7.772 -9.731,-11.885 -4.215,-5.691 -8.291,-11.498 -12.158,-17.43 -5.757,-8.833 -11.546,-17.667 -16.83,-26.785 -5.708,-9.857 -10.763,-20.094 -16.295,-30.058 -1.334,-2.403 -3.358,-4.447 -5.202,-6.536 -1.983,-2.24 -4.035,-4.439 -6.226,-6.475 -3.46,-3.215 -6.908,-6.479 -10.632,-9.368 -8.397,-6.512 -16.022,-13.917 -24.227,-20.641 -5.166,-4.231 -10.192,-8.674 -15.651,-12.493 C 142.858,89.434 133.438,83.4 124.058,77.301 115.682,71.854 107.77,65.816 100.345,59.141 94.87,54.22 89.387,49.3 84.054,44.224 80.141,40.499 76.432,36.554 72.691,32.653 67.587,27.333 62.544,21.955 57.448,16.627 56.926,16.08 56.224,15.701 55.604,15.244 c -0.175,0.09 -0.351,0.175 -0.526,0.265 0.135,0.849 0.11,1.763 0.429,2.534 2.371,5.745 4.435,11.689 8.445,16.561 3.248,3.945 6.491,7.964 10.233,11.412 5.646,5.198 11.722,9.931 17.613,14.863 0.326,0.273 0.612,0.587 0.738,1.175 -0.437,-0.171 -0.914,-0.282 -1.31,-0.526 C 83.136,56.509 74.992,51.573 66.991,46.407 60.402,42.156 53.948,37.688 47.513,33.208 43.258,30.246 39.226,26.958 34.93,24.061 29.92,20.683 24.742,17.553 19.61,14.367 c -0.795,-0.494 -1.763,-0.718 -3.109,-1.249 0.237,0.987 0.237,1.566 0.494,1.991 3.088,5.125 6.397,10.029 10.873,14.158 4.452,4.108 9.343,7.564 14.28,11 4.435,3.084 8.805,6.263 13.276,9.298 2.281,1.551 4.7,2.897 7.083,4.292 3.766,2.207 7.54,4.406 11.338,6.557 1.089,0.616 2.277,1.061 3.387,1.652 -2.62,-1.028 -5.275,-1.967 -7.846,-3.113 C 64.959,56.978 60.594,54.877 56.199,52.829 49.194,49.569 42.274,46.101 35.163,43.098 25.338,38.957 15.375,35.146 5.448,31.254 4.285,30.797 2.98,30.678 1.723,30.519 1.274,30.462 0.785,30.744 0.311,30.87 c 0.151,0.522 0.159,1.167 0.481,1.546 0.738,0.873 1.591,1.661 2.464,2.407 6.426,5.492 13.668,9.612 21.33,13.142 6.373,2.938 12.518,6.356 18.813,9.458 2.163,1.065 4.488,1.799 6.736,2.685 -0.041,0.163 -0.086,0.322 -0.131,0.485 -0.445,-0.106 -0.897,-0.184 -1.33,-0.314 C 38.087,57.039 27.544,53.649 16.895,50.622 12.317,49.32 7.532,48.704 2.819,47.921 1.938,47.772 0.942,48.311 0,48.536 c 0.498,0.792 0.873,1.709 1.526,2.342 0.816,0.792 1.82,1.408 2.807,1.995 10.383,6.161 21.722,10.155 32.889,14.553 2.432,0.959 4.868,1.918 7.303,2.873 -0.053,0.192 -0.106,0.383 -0.163,0.575 -0.971,-0.175 -1.938,-0.347 -2.909,-0.522 -6.006,-1.069 -11.999,-2.208 -18.025,-3.162 -1.318,-0.208 -2.75,0.151 -4.104,0.383 -0.546,0.094 -1.028,0.547 -1.917,1.049 1.583,1.269 2.729,2.562 4.166,3.272 6.459,3.203 12.995,6.238 19.507,9.335 0.281,0.135 0.551,0.306 0.914,0.506 -1.599,0.424 -3.043,0.808 -4.704,1.249 3.917,5.32 9.168,8.283 14.325,11.322 1.224,0.722 2.799,0.816 4.125,1.399 0.906,0.4 1.657,1.146 2.48,1.742 -1.477,1.917 -1.199,3.28 0.637,4.916 3.778,3.37 8.209,5.643 12.607,8.034 1.494,0.812 2.387,2.701 3.619,4.031 1.106,1.195 2.269,2.346 3.484,3.431 1.016,0.91 2.146,1.697 3.227,2.542 -2.574,3.04 -1.326,4.921 0.812,6.671 1.473,1.204 2.901,2.469 4.443,3.574 2.215,1.591 4.908,2.118 7.434,1.746 0.212,-0.032 0.412,-0.049 0.608,-0.061 1.33,3.19 4.088,5.716 7.401,6.716 1.746,1.926 3.827,3.574 4.737,6.173 0.42,1.204 0.661,2.285 0.477,3.623 -0.188,1.371 0.625,2.868 0.494,4.264 -0.249,2.668 1.906,2.664 3.375,3.468 0.404,0.22 0.828,0.408 1.256,0.579 1.75,0.71 2.526,1.938 1.967,3.807 -0.334,1.11 -0.282,1.999 0.792,2.701 1.505,0.983 2.962,2.048 4.451,3.06 0.951,0.645 1.893,1.302 2.893,1.861 0.628,0.351 1.347,0.702 2.044,0.742 1.24,0.074 1.697,0.702 1.514,1.792 -0.249,1.485 0.22,2.546 1.216,3.696 0.628,0.726 0.799,2.073 0.747,3.121 -0.18,3.533 0.775,4.823 4.194,5.777 1.575,0.44 3.08,1.188 3.651,3.056 0.555,1.824 1.493,3.19 3.721,3.525 1.987,0.298 2.974,1.995 2.909,3.913 -0.073,2.187 1.42,3.395 2.615,4.7 1.065,1.167 1.587,2.044 0.987,3.697 -0.824,2.276 0.498,4.377 1.249,6.467 0.098,0.273 0.992,0.261 1.616,0.408 -0.877,1.559 -0.326,2.403 1.342,3.105 1.669,0.702 3.125,1.746 3.55,3.896 0.575,2.913 2.501,4.631 5.557,4.965 0.546,0.061 1.061,0.396 1.787,0.681 -0.873,0.343 -1.53,0.604 -2.187,0.861 0.016,0.159 0.033,0.318 0.049,0.478 0.738,-0.024 1.493,-0.155 2.208,-0.045 0.742,0.114 1.444,0.469 2.166,0.718 -0.306,0.555 -0.575,1.138 -0.93,1.656 -0.29,0.424 -0.718,0.755 -1.024,1.171 -0.853,1.159 -0.171,2.966 1.228,3.264 0.277,0.061 0.575,0.024 0.865,0.037 3.766,0.171 3.672,0.167 3.459,3.99 -0.224,3.994 1.208,7.585 3.292,10.894 0.355,0.563 1.42,0.637 2.077,1.065 0.616,0.404 1.269,0.89 1.636,1.501 0.587,0.979 1.016,2.064 1.404,3.146 0.506,1.412 0.865,2.611 2.839,2.856 0.767,0.094 1.375,2.016 1.934,3.167 0.987,2.04 1.885,4.125 2.819,6.189 0.253,0.555 0.624,1.085 0.743,1.665 0.461,2.317 1.554,3.435 3.807,3.667 1.322,0.135 2.276,0.502 3.345,1.6 1.298,1.33 3.439,1.832 5.202,2.717 0.979,0.49 1.955,1.003 2.901,1.554 2.118,1.229 4.198,2.518 6.332,3.717 1.514,0.849 2.142,2.285 1.84,4.235 -0.237,1.53 -0.947,2.909 -0.592,4.663 0.188,0.914 -1.351,2.179 -2.342,3.632 -0.388,-2.094 -1.489,-3.007 -2.962,-2.428 -2.628,1.036 -5.427,0.677 -8.066,1.392 -2.362,0.64 -4.721,1.293 -7.083,1.938 -0.11,0.032 -0.229,0.118 -0.33,0.098 -4.187,-0.783 -8.124,0.841 -12.183,1.273 -4.806,0.51 -9.592,1.203 -14.394,1.767 -5.794,0.677 -11.604,1.232 -17.381,1.991 -2.55,-1.021 -5.585,0.514 -6.561,2.994 -1.077,2.738 0.355,5.573 2.933,6.744 0.849,0.384 1.702,0.771 2.55,1.155 0.804,4.398 4.529,7.857 8.817,8.629 -0.587,0.384 -1.151,0.792 -1.661,1.248 -0.833,0.743 -2.048,1.747 -1.134,3.093 0.853,1.257 1.885,2.579 3.786,1.734 0.747,0.873 0.114,3.35 1.844,2.33 2.75,1.366 5.059,2.517 7.454,3.704 0.241,2.289 1.094,3.052 4.631,3.733 1.297,0.249 2.632,0.33 3.954,0.408 1.31,0.077 2.627,0.057 4.227,0.081 -0.4,0.547 -0.682,1.135 -1.134,1.518 -2.256,1.906 -2.317,3.762 -0.143,5.704 0.522,0.465 1.057,0.938 1.498,1.478 1.534,1.876 1.522,1.889 3.423,1.868 0.286,0.624 0.392,1.428 0.792,1.62 1.575,0.763 3.06,2.04 5.055,1.272 0.253,-0.098 0.767,0.004 0.918,0.2 0.702,0.897 1.171,2.04 2.016,2.746 0.755,0.628 1.877,0.853 2.868,1.154 0.417,0.127 1.004,0.146 1.359,-0.053 2.142,-1.236 4.508,-0.159 6.708,-0.71 0.134,-0.033 0.306,0.094 0.559,0.175 -0.388,0.392 -0.722,0.727 -1.416,1.416 2.832,0.51 5.202,1.473 7.785,0.506 0.461,-0.171 1.012,-0.473 1.424,-0.359 1.591,0.445 3.142,1.033 4.676,1.555 -0.282,0.18 -0.734,0.461 -1.453,0.91 1.95,1.44 3.974,1.897 6.12,2.061 0.775,0.057 1.571,0.098 2.313,0.302 1.914,0.526 3.941,-0.135 5.304,-2.023 4.517,-6.271 9.168,-12.457 13.37,-18.932 1.763,-2.713 3.97,-4.104 6.871,-4.513 4.834,-0.681 9.343,-2.248 13.753,-4.251 0.894,-0.408 1.787,-0.645 2.991,0.037 1.306,0.742 3.093,0.648 4.651,0.913 -0.547,1.682 0.738,2.864 1.526,4.231 0.229,0.396 0.6,0.991 0.457,1.281 -0.979,2.011 0.298,3.713 0.689,5.512 0.082,0.38 0.702,0.689 1.13,0.942 0.992,0.584 2.028,1.086 3.02,1.669 1.436,0.849 2.207,2.036 2.281,3.803 0.028,0.657 0.754,1.66 1.362,1.844 1.844,0.56 2.514,1.905 3.122,3.497 0.232,0.607 0.787,1.317 1.367,1.538 4.406,1.685 8.841,3.305 13.296,4.851 1.342,0.466 2.791,0.608 4.182,0.943 0.471,0.113 1.232,0.293 1.303,0.579 0.447,1.881 2.105,1.991 3.463,2.443 1.723,0.575 3.484,0.935 3.68,3.269 0.029,0.354 0.797,0.767 1.295,0.946 1.676,0.608 3.406,1.061 5.066,1.706 0.51,0.195 0.891,0.783 1.277,1.235 0.686,0.809 1.184,1.881 2.023,2.432 3.51,2.298 7.287,3.889 11.615,3.57 0.568,-0.041 1.123,-0.229 1.82,-0.379 0.037,0.583 0.066,1.122 0.102,1.688 0.498,0.082 0.98,0.163 1.58,0.262 -0.152,0.526 -0.27,0.946 -0.381,1.334 0.557,1.105 2.637,1.004 5.035,-0.266 -0.35,1.106 -0.379,1.938 1.123,1.787 1.709,-0.175 2.557,0.485 2.557,2.228 0,1.905 1.479,2.632 2.674,3.183 0.734,0.339 2.125,-0.33 3.027,-0.865 0.91,-0.538 1.582,-1.473 2.496,-2.362 0.547,2.212 -1.268,3.334 -2.271,4.872 0.664,0.44 1.137,0.946 1.705,1.098 1.432,0.379 2.938,0.514 3.121,2.505 0.012,0.135 1.432,0.416 2.004,0.176 1.971,-0.829 3.654,-0.702 4.361,1.313 1.031,2.945 4.111,3.921 5.418,6.499 0.252,0.502 1.139,0.689 1.836,1.081 -0.213,0.155 -0.449,0.335 -0.689,0.498 -0.975,0.653 -0.787,1.261 0.188,1.571 2.701,0.853 5.332,2.104 8.326,1.379 0.385,-0.094 1.209,0.428 1.385,0.849 1.133,2.726 3.084,4.459 5.854,5.418 0.465,0.159 0.898,0.845 1.061,1.371 0.576,1.873 0.891,3.835 1.572,5.663 0.412,1.098 1.301,2.02 2.016,2.994 0.551,0.755 1.023,1.645 1.754,2.163 1.918,1.358 4.17,1.117 6.344,0.881 0.895,-0.094 1.742,-0.587 2.637,-0.677 0.586,-0.062 1.334,0.109 1.803,0.457 1.574,1.166 3.061,2.456 4.578,3.704 0.127,0.106 0.301,0.229 0.334,0.371 0.832,3.554 4.512,4.382 6.496,6.822 0.84,1.032 1.395,2.293 2.186,3.37 0.344,0.465 0.988,0.693 1.457,1.073 0.502,0.407 1.191,0.783 1.404,1.325 1.607,4.207 3.875,7.993 7.238,10.983 1.738,1.547 3.488,3.093 5.977,3.754 1.221,0.322 2.057,2.171 3.016,3.37 2.068,2.595 3.924,5.386 6.213,7.769 1.633,1.697 3.645,3.333 6.455,2.415 0.262,-0.086 0.771,0.18 0.982,0.433 0.4,0.481 0.828,1.036 0.967,1.624 1.09,4.663 4.949,7.372 7.609,10.922 0.131,0.176 0.355,0.396 0.539,0.404 1.551,0.057 2.775,0.759 3.93,1.729 0.27,0.229 0.959,0.281 1.256,0.098 1.641,-1.02 2.143,0.245 2.727,1.294 0.219,0.392 0.312,0.869 0.402,1.321 0.752,3.889 3.207,6.912 5.305,10.07 1.742,2.623 3.885,4.989 5.924,7.404 0.723,0.854 1.66,1.519 2.885,2.611 0.734,-1.591 1.445,-3.133 2.293,-4.974 0.828,1.579 1.529,3.052 2.346,4.46 2.4,4.141 4.732,8.323 7.32,12.342 1.031,1.604 2.594,2.905 4.084,4.137 0.289,0.237 1.77,-0.302 2.008,-0.808 0.514,-1.105 0.885,-2.443 0.787,-3.647 -0.408,-5.047 -1.008,-10.081 -1.539,-15.12 -0.031,-0.322 -0.082,-0.645 -0.162,-1.298 1.236,2.645 2.395,4.893 3.35,7.226 1.346,3.289 2.615,6.618 3.789,9.972 2.775,7.911 6.99,15.112 10.928,22.452 0.537,1 1.338,1.877 2.129,2.701 0.158,0.163 1.139,-0.065 1.207,-0.281 0.295,-0.922 0.494,-1.905 0.531,-2.872 0.262,-6.279 -0.67,-12.452 -2.117,-18.512 -1.982,-8.294 -4.297,-16.512 -6.475,-24.761 -0.25,-0.942 -0.52,-1.877 -0.441,-2.95 1.203,2.681 2.395,5.365 3.611,8.042 3.883,8.547 7.605,17.177 11.738,25.605 2.395,4.884 5.051,9.702 8.795,13.767 1.787,1.938 3.604,3.852 5.477,5.851 1.281,-0.987 1.496,-2.244 1.215,-3.578 -0.645,-3.044 -1.084,-6.169 -2.125,-9.078 -3.275,-9.172 -6.68,-18.303 -10.254,-27.36 -2.834,-7.189 -5.996,-14.248 -9.012,-21.367 -0.098,-0.236 -0.172,-0.485 0.023,-0.853 0.609,1.269 1.201,2.546 1.824,3.807 5.811,11.795 12.154,23.292 19.613,34.129 3.373,4.904 7.539,9.106 12.701,12.224 1.514,0.914 2.934,1.987 4.398,2.986 0.162,-0.069 0.322,-0.139 0.484,-0.208 -0.195,-0.812 -0.229,-1.713 -0.615,-2.423 -3.99,-7.345 -7.943,-14.705 -12.086,-21.963 -5.74,-10.065 -11.631,-20.045 -17.457,-30.062 -4.031,-6.928 -8.059,-13.859 -12.082,-20.792 -0.195,-0.338 -0.363,-0.697 -0.252,-1.236 1.195,1.714 2.334,3.473 3.598,5.133 2.289,3.016 4.518,6.092 7.018,8.928 3.533,4.006 7.227,7.891 10.992,11.685 1.648,1.661 3.607,3.023 5.492,4.431 4.773,3.559 10.031,6.096 15.871,7.397 1.627,0.363 3.215,0.897 4.842,1.265 0.479,0.106 1.029,-0.098 1.543,-0.159 -0.24,-0.489 -0.355,-1.13 -0.738,-1.437 -1.423,-1.13 -2.9,-2.142 -4.368,-3.162 z M 329.627,296.999 c -0.742,-0.967 -1.637,-1.607 -1.672,-2.297 -0.062,-1.098 1.59,-1.713 3.414,-1.379 -0.521,1.106 -1.023,2.162 -1.742,3.676 z"
             inkscape:connector-curvature="0"
             style="fill:#599c2a" />
        </g>
      </g>
      <g
         id="g3349" />
      <g
         id="g3351" />
      <g
         id="g3353" />
      <g
         id="g3355" />
      <g
         id="g3357" />
      <g
         id="g3359" />
      <g
         id="g3361" />
      <g
         id="g3363" />
      <g
         id="g3365" />
      <g
         id="g3367" />
      <g
         id="g3369" />
      <g
         id="g3371" />
      <g
         id="g3373" />
      <g
         id="g3375" />
      <g
         id="g3377" />
    </g>
  </g>
</svg>
